<svg width="206" height="80" viewBox="0 0 206 80" fill="none" xmlns="http://www.w3.org/2000/svg">
<path d="M8.99609 3.04688V13H6.94531V4.65332H2.94629V13H0.895508V3.04688H8.99609ZM15.0831 9.45215H12.547V7.85254H15.0831C15.475 7.85254 15.794 7.78874 16.0401 7.66113C16.2862 7.52897 16.4662 7.34668 16.5802 7.11426C16.6941 6.88184 16.7511 6.61979 16.7511 6.32812C16.7511 6.0319 16.6941 5.75618 16.5802 5.50098C16.4662 5.24577 16.2862 5.04069 16.0401 4.88574C15.794 4.73079 15.475 4.65332 15.0831 4.65332H13.2579V13H11.2071V3.04688H15.0831C15.8624 3.04688 16.53 3.18815 17.086 3.4707C17.6466 3.7487 18.0749 4.13379 18.3712 4.62598C18.6674 5.11816 18.8155 5.68099 18.8155 6.31445C18.8155 6.95703 18.6674 7.51302 18.3712 7.98242C18.0749 8.45182 17.6466 8.81413 17.086 9.06934C16.53 9.32454 15.8624 9.45215 15.0831 9.45215ZM22.6261 9.77344L26.6252 3.04688H28.6759V13H26.6252V6.27344L22.6261 13H20.5754V3.04688H22.6261V9.77344ZM35.6789 7.20996V8.80957H31.6389V7.20996H35.6789ZM36.6428 9.69824H38.6936C38.6526 10.3727 38.468 10.9697 38.1399 11.4893C37.8118 12.0042 37.356 12.4098 36.7727 12.7061C36.1939 12.9977 35.4989 13.1436 34.6877 13.1436C34.0497 13.1436 33.4755 13.0319 32.9651 12.8086C32.4592 12.5853 32.0286 12.2686 31.6731 11.8584C31.3176 11.4437 31.0442 10.9424 30.8528 10.3545C30.6659 9.7666 30.5725 9.10579 30.5725 8.37207V7.69531C30.5725 6.96159 30.6682 6.30078 30.8596 5.71289C31.0556 5.125 31.3336 4.62142 31.6936 4.20215C32.0582 3.78288 32.4934 3.46387 32.9993 3.24512C33.5051 3.02181 34.0725 2.91016 34.7014 2.91016C35.5354 2.91016 36.2372 3.06055 36.8069 3.36133C37.3765 3.66211 37.8186 4.07682 38.133 4.60547C38.4521 5.12956 38.6412 5.73112 38.7004 6.41016H36.6633C36.6314 6.00911 36.5471 5.66732 36.4104 5.38477C36.2782 5.10221 36.0732 4.88802 35.7952 4.74219C35.5217 4.5918 35.1571 4.5166 34.7014 4.5166C34.3642 4.5166 34.0657 4.58268 33.8059 4.71484C33.5461 4.84245 33.3274 5.03841 33.1496 5.30273C32.9765 5.56706 32.8443 5.89746 32.7532 6.29395C32.6666 6.68587 32.6233 7.14844 32.6233 7.68164V8.37207C32.6233 8.78678 32.6483 9.16276 32.6985 9.5C32.7486 9.83268 32.8261 10.1266 32.9309 10.3818C33.0357 10.637 33.1679 10.8512 33.3274 11.0244C33.4914 11.1976 33.6851 11.3298 33.9084 11.4209C34.1363 11.5075 34.3961 11.5508 34.6877 11.5508C35.1161 11.5508 35.4693 11.4801 35.7473 11.3389C36.0253 11.1976 36.2372 10.9902 36.383 10.7168C36.5289 10.4434 36.6155 10.1038 36.6428 9.69824ZM48.4036 11.4004V13H41.2327V11.4004H48.4036ZM41.8411 11.4004V15.4404H39.9134L39.804 11.4004H41.8411ZM49.8802 11.4004L49.7025 15.4473H47.8226V11.4004H49.8802ZM47.2757 3.04688V4.65332H42.4837V3.04688H47.2757ZM48.7386 3.04688V13H46.6946V3.04688H48.7386ZM42.2308 3.04688H44.2816L44.015 7.10059C43.9739 7.77051 43.901 8.36296 43.7962 8.87793C43.696 9.38835 43.5729 9.83724 43.4271 10.2246C43.2858 10.612 43.1286 10.9515 42.9554 11.2432C42.7822 11.5303 42.5999 11.7809 42.4085 11.9951C42.2171 12.2048 42.0234 12.3916 41.8275 12.5557C41.6315 12.7152 41.4401 12.8633 41.2532 13H40.0775V11.4004H40.5355C40.6676 11.291 40.8066 11.1406 40.9525 10.9492C41.1029 10.7578 41.2441 10.5003 41.3763 10.1768C41.513 9.84863 41.6315 9.43392 41.7318 8.93262C41.8366 8.43132 41.914 7.82064 41.9642 7.10059L42.2308 3.04688ZM57.9975 7.10059V8.7002H52.8021V7.10059H57.9975ZM53.4105 3.04688V13H51.3598V3.04688H53.4105ZM59.4604 3.04688V13H57.4164V3.04688H59.4604ZM64.7886 9.39062L67.2358 3.04688H69.4438L66.0327 11.0723C65.9142 11.3457 65.7775 11.6077 65.6225 11.8584C65.4721 12.1045 65.2921 12.3255 65.0825 12.5215C64.8729 12.7129 64.6222 12.8656 64.3305 12.9795C64.0389 13.0889 63.6902 13.1436 63.2846 13.1436C63.1844 13.1436 63.0613 13.1413 62.9155 13.1367C62.7697 13.1322 62.6535 13.1253 62.5669 13.1162L62.5532 11.5166C62.6079 11.5303 62.6945 11.5394 62.813 11.5439C62.9315 11.5439 63.018 11.5439 63.0727 11.5439C63.3416 11.5439 63.5535 11.5052 63.7085 11.4277C63.8634 11.3503 63.9865 11.2409 64.0776 11.0996C64.1733 10.9538 64.2576 10.7829 64.3305 10.5869L64.7886 9.39062ZM63.1684 3.04688L65.438 7.97559L66.0737 10.2383L64.5493 10.2656L60.9673 3.04688H63.1684ZM72.9058 9.77344L76.9048 3.04688H78.9556V13H76.9048V6.27344L72.9058 13H70.855V3.04688H72.9058V9.77344ZM75.9 0.435547H77.3013C77.3013 0.827474 77.2033 1.17611 77.0074 1.48145C76.816 1.78223 76.5425 2.01921 76.1871 2.19238C75.8316 2.361 75.4123 2.44531 74.9293 2.44531C74.1955 2.44531 73.6145 2.25846 73.1861 1.88477C72.7623 1.51107 72.5504 1.02799 72.5504 0.435547H73.9449C73.9449 0.672526 74.0178 0.88444 74.1636 1.07129C74.314 1.25814 74.5692 1.35156 74.9293 1.35156C75.2847 1.35156 75.5354 1.25814 75.6812 1.07129C75.827 0.88444 75.9 0.672526 75.9 0.435547ZM85.6032 3.04688V13H83.5592V3.04688H85.6032ZM88.6657 3.04688V4.65332H80.5446V3.04688H88.6657ZM96.9333 11.4004V13H91.6355V11.4004H96.9333ZM92.3054 3.04688V13H90.2546V3.04688H92.3054ZM96.2429 7.10059V8.65918H91.6355V7.10059H96.2429ZM96.9265 3.04688V4.65332H91.6355V3.04688H96.9265ZM104.319 9.69824H106.363C106.322 10.3682 106.137 10.9629 105.809 11.4824C105.486 12.002 105.032 12.4076 104.449 12.6992C103.87 12.9909 103.173 13.1367 102.357 13.1367C101.719 13.1367 101.147 13.0273 100.641 12.8086C100.136 12.5853 99.7026 12.2663 99.3426 11.8516C98.9871 11.4368 98.7159 10.9355 98.5291 10.3477C98.3422 9.75977 98.2488 9.10124 98.2488 8.37207V7.68164C98.2488 6.95247 98.3445 6.29395 98.5359 5.70605C98.7319 5.11361 99.0099 4.61003 99.3699 4.19531C99.7345 3.7806 100.17 3.46159 100.676 3.23828C101.181 3.01497 101.747 2.90332 102.371 2.90332C103.2 2.90332 103.9 3.05371 104.47 3.35449C105.044 3.65527 105.488 4.06999 105.803 4.59863C106.122 5.12728 106.313 5.72884 106.377 6.40332H104.326C104.303 6.00228 104.223 5.66276 104.087 5.38477C103.95 5.10221 103.743 4.8903 103.465 4.74902C103.191 4.60319 102.827 4.53027 102.371 4.53027C102.029 4.53027 101.731 4.59408 101.475 4.72168C101.22 4.84928 101.006 5.04297 100.833 5.30273C100.66 5.5625 100.53 5.89062 100.443 6.28711C100.361 6.67904 100.32 7.13932 100.32 7.66797V8.37207C100.32 8.88704 100.359 9.34049 100.436 9.73242C100.514 10.1198 100.632 10.4479 100.792 10.7168C100.956 10.9811 101.165 11.1816 101.421 11.3184C101.68 11.4505 101.993 11.5166 102.357 11.5166C102.786 11.5166 103.139 11.4482 103.417 11.3115C103.695 11.1748 103.907 10.972 104.053 10.7031C104.203 10.4342 104.292 10.0993 104.319 9.69824ZM109.456 6.67676H111.78C112.564 6.67676 113.238 6.80664 113.804 7.06641C114.369 7.32617 114.804 7.69076 115.109 8.16016C115.415 8.62956 115.567 9.17643 115.567 9.80078C115.567 10.2747 115.481 10.7077 115.308 11.0996C115.134 11.487 114.881 11.8242 114.549 12.1113C114.221 12.3939 113.824 12.6126 113.359 12.7676C112.894 12.9225 112.368 13 111.78 13H108.116V3.04688H110.174V11.4004H111.78C112.172 11.4004 112.496 11.3275 112.751 11.1816C113.006 11.0358 113.197 10.8421 113.325 10.6006C113.457 10.3545 113.523 10.0833 113.523 9.78711C113.523 9.50456 113.457 9.24935 113.325 9.02148C113.197 8.78906 113.006 8.60677 112.751 8.47461C112.496 8.34245 112.172 8.27637 111.78 8.27637H109.456V6.67676Z" fill="white"/>
<path d="M206 58C206 64.0751 203.538 69.5751 199.556 73.5564C195.575 77.5376 190.075 80 184 80C177.925 80 172.425 77.5376 168.444 73.5564C164.462 69.5751 162 64.0751 162 58C162 51.9249 164.462 46.4249 168.444 42.4437C172.425 38.4624 177.925 36 184 36C190.075 36 195.575 38.4624 199.556 42.4437C203.538 46.4249 206 51.9249 206 58Z" fill="white" fill-opacity="0.1"/>
<g clip-path="url(#clip0_1_864)">
<path d="M193.995 68.0001V67.9993H194V60.6643C194 57.0759 193.228 54.3118 189.032 54.3118C187.016 54.3118 185.662 55.4184 185.11 56.4676H185.052V54.6468H181.074V67.9993H185.216V61.3876C185.216 59.6468 185.546 57.9634 187.702 57.9634C189.826 57.9634 189.857 59.9501 189.857 61.4993V68.0001H193.995Z" fill="white"/>
<path d="M174.33 54.6475H178.477V68H174.33V54.6475Z" fill="white"/>
<path d="M176.402 48C175.076 48 174 49.0758 174 50.4017C174 51.7275 175.076 52.8258 176.402 52.8258C177.727 52.8258 178.803 51.7275 178.803 50.4017C178.802 49.0758 177.727 48 176.402 48V48Z" fill="white"/>
</g>
<path d="M152 58C152 64.0751 149.538 69.5751 145.556 73.5564C141.575 77.5376 136.075 80 130 80C123.925 80 118.425 77.5376 114.444 73.5564C110.462 69.5751 108 64.0751 108 58C108 51.9249 110.462 46.4249 114.444 42.4437C118.425 38.4624 123.925 36 130 36C136.075 36 141.575 38.4624 145.556 42.4437C149.538 46.4249 152 51.9249 152 58Z" fill="white" fill-opacity="0.1"/>
<g clip-path="url(#clip1_1_864)">
<path d="M133.331 51.3208H135.157V48.1408C134.842 48.0975 133.758 48 132.497 48C129.864 48 128.061 49.6558 128.061 52.6992V55.5H125.156V59.055H128.061V68H131.623V59.0558H134.41L134.853 55.5008H131.622V53.0517C131.623 52.0242 131.899 51.3208 133.331 51.3208Z" fill="white"/>
</g>
<path d="M98 58C98 64.0751 95.5376 69.5751 91.5564 73.5564C87.5751 77.5376 82.0751 80 76 80C69.9249 80 64.4249 77.5376 60.4437 73.5564C56.4624 69.5751 54 64.0751 54 58C54 51.9249 56.4624 46.4249 60.4437 42.4437C64.4249 38.4624 69.9249 36 76 36C82.0751 36 87.5751 38.4624 91.5564 42.4437C95.5376 46.4249 98 51.9249 98 58Z" fill="#2196F3"/>
<g clip-path="url(#clip2_1_864)">
<path d="M86 51.7988C85.2563 52.125 84.4637 52.3412 83.6375 52.4462C84.4875 51.9388 85.1363 51.1412 85.4412 50.18C84.6488 50.6525 83.7738 50.9863 82.8412 51.1725C82.0887 50.3713 81.0162 49.875 79.8462 49.875C77.5763 49.875 75.7487 51.7175 75.7487 53.9763C75.7487 54.3012 75.7762 54.6137 75.8438 54.9112C72.435 54.745 69.4188 53.1113 67.3925 50.6225C67.0387 51.2363 66.8313 51.9388 66.8313 52.695C66.8313 54.115 67.5625 55.3737 68.6525 56.1025C67.9937 56.09 67.3475 55.8988 66.8 55.5975C66.8 55.61 66.8 55.6262 66.8 55.6425C66.8 57.635 68.2212 59.29 70.085 59.6712C69.7512 59.7625 69.3875 59.8062 69.01 59.8062C68.7475 59.8062 68.4825 59.7913 68.2337 59.7362C68.765 61.36 70.2725 62.5538 72.065 62.5925C70.67 63.6838 68.8988 64.3412 66.9813 64.3412C66.645 64.3412 66.3225 64.3263 66 64.285C67.8162 65.4563 69.9688 66.125 72.29 66.125C79.835 66.125 83.96 59.875 83.96 54.4575C83.96 54.2762 83.9538 54.1013 83.945 53.9275C84.7588 53.35 85.4425 52.6288 86 51.7988Z" fill="white"/>
</g>
<path d="M44 58C44 64.0751 41.5376 69.5751 37.5564 73.5564C33.5751 77.5376 28.0751 80 22 80C15.9249 80 10.4249 77.5376 6.44365 73.5564C2.46243 69.5751 0 64.0751 0 58C0 51.9249 2.46243 46.4249 6.44365 42.4437C10.4249 38.4624 15.9249 36 22 36C28.0751 36 33.5751 38.4624 37.5564 42.4437C41.5376 46.4249 44 51.9249 44 58Z" fill="white" fill-opacity="0.1"/>
<g clip-path="url(#clip3_1_864)">
<path d="M31.9804 53.8801C31.9336 52.8174 31.7617 52.0868 31.5156 51.4537C31.2616 50.7818 30.8709 50.1801 30.359 49.68C29.8589 49.1721 29.2533 48.7774 28.5891 48.5274C27.9524 48.2813 27.2256 48.1094 26.163 48.0626C25.0924 48.0118 24.7525 48 22.0371 48C19.3217 48 18.9818 48.0118 17.9152 48.0586C16.8525 48.1055 16.1219 48.2775 15.489 48.5235C14.8169 48.7774 14.2153 49.1681 13.7152 49.68C13.2073 50.1801 12.8127 50.7857 12.5626 51.4499C12.3164 52.0868 12.1446 52.8134 12.0977 53.8761C12.0469 54.9467 12.0352 55.2866 12.0352 58.002C12.0352 60.7173 12.0469 61.0572 12.0938 62.1239C12.1406 63.1865 12.3126 63.9171 12.5588 64.5502C12.8127 65.2221 13.2073 65.8238 13.7152 66.3239C14.2153 66.8318 14.8209 67.2265 15.4851 67.4765C16.1219 67.7226 16.8486 67.8945 17.9114 67.9413C18.9779 67.9883 19.3179 67.9999 22.0333 67.9999C24.7487 67.9999 25.0885 67.9883 26.1552 67.9413C27.2179 67.8945 27.9484 67.7226 28.5813 67.4765C29.9254 66.9568 30.9881 65.8941 31.5078 64.5502C31.7538 63.9133 31.9258 63.1865 31.9727 62.1239C32.0195 61.0572 32.0313 60.7173 32.0313 58.002C32.0313 55.2866 32.0273 54.9467 31.9804 53.8801ZM30.1794 62.0457C30.1364 63.0225 29.9723 63.5499 29.8356 63.9015C29.4995 64.7728 28.808 65.4643 27.9367 65.8004C27.5851 65.9372 27.0538 66.1012 26.0809 66.1441C25.026 66.1911 24.7096 66.2027 22.0411 66.2027C19.3726 66.2027 19.0522 66.1911 18.0011 66.1441C17.0244 66.1012 16.4969 65.9372 16.1453 65.8004C15.7117 65.6402 15.317 65.3862 14.9967 65.0541C14.6646 64.7298 14.4106 64.3391 14.2504 63.9055C14.1137 63.5539 13.9496 63.0225 13.9067 62.0497C13.8597 60.9948 13.8481 60.6783 13.8481 58.0097C13.8481 55.3412 13.8597 55.0209 13.9067 53.9699C13.9496 52.9932 14.1137 52.4657 14.2504 52.1141C14.4106 51.6804 14.6646 51.2859 15.0007 50.9654C15.3248 50.6333 15.7155 50.3793 16.1493 50.2192C16.5009 50.0825 17.0323 49.9184 18.0051 49.8754C19.06 49.8285 19.3765 49.8168 22.0449 49.8168C24.7174 49.8168 25.0337 49.8285 26.0848 49.8754C27.0616 49.9184 27.589 50.0825 27.9407 50.2192C28.3742 50.3793 28.7689 50.6333 29.0893 50.9654C29.4213 51.2897 29.6753 51.6804 29.8356 52.1141C29.9723 52.4657 30.1364 52.997 30.1794 53.9699C30.2263 55.0248 30.238 55.3412 30.238 58.0097C30.238 60.6783 30.2263 60.9908 30.1794 62.0457Z" fill="white"/>
<path d="M22.0371 52.8641C19.2007 52.8641 16.8994 55.1653 16.8994 58.0019C16.8994 60.8384 19.2007 63.1396 22.0371 63.1396C24.8737 63.1396 27.1749 60.8384 27.1749 58.0019C27.1749 55.1653 24.8737 52.8641 22.0371 52.8641ZM22.0371 61.3346C20.197 61.3346 18.7044 59.8421 18.7044 58.0019C18.7044 56.1616 20.197 54.6691 22.0371 54.6691C23.8774 54.6691 25.3698 56.1616 25.3698 58.0019C25.3698 59.8421 23.8774 61.3346 22.0371 61.3346Z" fill="white"/>
<path d="M28.5775 52.6611C28.5775 53.3235 28.0404 53.8605 27.3779 53.8605C26.7155 53.8605 26.1785 53.3235 26.1785 52.6611C26.1785 51.9986 26.7155 51.4617 27.3779 51.4617C28.0404 51.4617 28.5775 51.9986 28.5775 52.6611Z" fill="white"/>
</g>
<defs>
<clipPath id="clip0_1_864">
<rect width="20" height="20" fill="white" transform="translate(174 48)"/>
</clipPath>
<clipPath id="clip1_1_864">
<rect width="20" height="20" fill="white" transform="translate(120 48)"/>
</clipPath>
<clipPath id="clip2_1_864">
<rect width="20" height="20" fill="white" transform="translate(66 48)"/>
</clipPath>
<clipPath id="clip3_1_864">
<rect width="20" height="20" fill="white" transform="translate(12 48)"/>
</clipPath>
</defs>
</svg>
